<svg width="178" height="55" viewBox="0 0 178 55" fill="none" xmlns="http://www.w3.org/2000/svg">
<path d="M46.2169 18.8984C46.2169 22.3264 46.2169 44.4941 46.2169 47.171H39.971C39.971 4.15929 39.971 29.4847 39.971 14.0941L23.0547 1L23.0319 4.81794C23.0319 9.7961 23.0319 42.7526 23.0319 47.171H15.4469C15.4469 32.2006 15.4469 25.5144 15.4469 10.4524L0 22.5792V52H4.96317C4.96317 52 4.93546 48.1486 4.93546 24.9243L10.5131 20.6335C10.5131 57.8449 10.5131 44.695 10.5131 52H28.0195C28.0195 33.4445 28.0195 27.4537 28.0195 11.0018L34.7283 15.9727C34.7283 25.1285 34.7283 42.936 34.7283 52H51V22.5792L46.2169 18.8984Z" fill="#AC8D68"/>
<path d="M69.26 52L71.84 45H73L75.56 52H74.44L73.84 50.29H70.98L70.38 52H69.26ZM71.28 49.45H73.54L72.41 46.26L71.28 49.45ZM79.8362 52V45H82.2462C82.7995 45 83.2528 45.0933 83.6062 45.28C83.9662 45.4667 84.2328 45.72 84.4062 46.04C84.5795 46.3533 84.6662 46.7033 84.6662 47.09C84.6662 47.5233 84.5495 47.9167 84.3162 48.27C84.0895 48.6233 83.7328 48.8767 83.2462 49.03L84.7362 52H83.5062L82.1462 49.18H80.8962V52H79.8362ZM80.8962 48.38H82.1862C82.6662 48.38 83.0162 48.2633 83.2362 48.03C83.4628 47.7967 83.5762 47.4933 83.5762 47.12C83.5762 46.7467 83.4662 46.45 83.2462 46.23C83.0262 46.0033 82.6695 45.89 82.1762 45.89H80.8962V48.38ZM92.3402 52.12C91.6468 52.12 91.0468 51.97 90.5402 51.67C90.0402 51.3633 89.6535 50.94 89.3802 50.4C89.1068 49.8533 88.9702 49.2233 88.9702 48.51C88.9702 47.79 89.1068 47.16 89.3802 46.62C89.6535 46.0733 90.0402 45.6467 90.5402 45.34C91.0468 45.0333 91.6468 44.88 92.3402 44.88C93.1602 44.88 93.8302 45.08 94.3502 45.48C94.8702 45.88 95.2002 46.44 95.3402 47.16H94.1602C94.0668 46.7533 93.8668 46.43 93.5602 46.19C93.2535 45.95 92.8435 45.83 92.3302 45.83C91.6302 45.83 91.0768 46.07 90.6702 46.55C90.2635 47.0233 90.0602 47.6767 90.0602 48.51C90.0602 49.3367 90.2635 49.9867 90.6702 50.46C91.0768 50.9333 91.6302 51.17 92.3302 51.17C92.8435 51.17 93.2535 51.0567 93.5602 50.83C93.8668 50.6033 94.0668 50.2933 94.1602 49.9H95.3402C95.2002 50.5933 94.8702 51.1367 94.3502 51.53C93.8302 51.9233 93.1602 52.12 92.3402 52.12ZM99.8053 52V45H100.865V48H104.255V45H105.315V52H104.255V48.87H100.865V52H99.8053ZM110.039 52V45H111.099V52H110.039ZM117.459 52V45.86H115.389V45H120.579V45.86H118.519V52H117.459ZM124.871 52V45H129.321V45.86H125.931V48.04H129.021V48.88H125.931V51.14H129.321V52H124.871ZM137.004 52.12C136.311 52.12 135.711 51.97 135.204 51.67C134.704 51.3633 134.318 50.94 134.044 50.4C133.771 49.8533 133.634 49.2233 133.634 48.51C133.634 47.79 133.771 47.16 134.044 46.62C134.318 46.0733 134.704 45.6467 135.204 45.34C135.711 45.0333 136.311 44.88 137.004 44.88C137.824 44.88 138.494 45.08 139.014 45.48C139.534 45.88 139.864 46.44 140.004 47.16H138.824C138.731 46.7533 138.531 46.43 138.224 46.19C137.918 45.95 137.508 45.83 136.994 45.83C136.294 45.83 135.741 46.07 135.334 46.55C134.928 47.0233 134.724 47.6767 134.724 48.51C134.724 49.3367 134.928 49.9867 135.334 50.46C135.741 50.9333 136.294 51.17 136.994 51.17C137.508 51.17 137.918 51.0567 138.224 50.83C138.531 50.6033 138.731 50.2933 138.824 49.9H140.004C139.864 50.5933 139.534 51.1367 139.014 51.53C138.494 51.9233 137.824 52.12 137.004 52.12ZM145.982 52V45.86H143.912V45H149.102V45.86H147.042V52H145.982ZM156.014 52.12C155.514 52.12 155.061 52.0233 154.654 51.83C154.254 51.63 153.934 51.3267 153.694 50.92C153.461 50.5133 153.344 49.9967 153.344 49.37V45H154.404V49.38C154.404 49.9933 154.551 50.4433 154.844 50.73C155.138 51.0167 155.534 51.16 156.034 51.16C156.528 51.16 156.921 51.0167 157.214 50.73C157.508 50.4433 157.654 49.9933 157.654 49.38V45H158.714V49.37C158.714 49.9967 158.591 50.5133 158.344 50.92C158.104 51.3267 157.778 51.63 157.364 51.83C156.958 52.0233 156.508 52.12 156.014 52.12ZM163.374 52V45H165.784C166.337 45 166.791 45.0933 167.144 45.28C167.504 45.4667 167.771 45.72 167.944 46.04C168.117 46.3533 168.204 46.7033 168.204 47.09C168.204 47.5233 168.087 47.9167 167.854 48.27C167.627 48.6233 167.271 48.8767 166.784 49.03L168.274 52H167.044L165.684 49.18H164.434V52H163.374ZM164.434 48.38H165.724C166.204 48.38 166.554 48.2633 166.774 48.03C167.001 47.7967 167.114 47.4933 167.114 47.12C167.114 46.7467 167.004 46.45 166.784 46.23C166.564 46.0033 166.207 45.89 165.714 45.89H164.434V48.38ZM172.758 52V45H177.208V45.86H173.818V48.04H176.908V48.88H173.818V51.14H177.208V52H172.758Z" fill="white"/>
<path d="M68.8945 34V33.209L71.0215 33.0332L79.3359 8.19531H80.127L88.7227 33.0332L91.043 33.209V34H81.6387V33.209L84.0117 33.0332L81.9375 26.7227H74.0625L72.0234 33.0332L74.3965 33.209V34H68.8945ZM74.3789 25.668L81.5508 25.5273L78.0352 14.7344H77.9648L74.3789 25.668ZM88.4766 17.0723V16.3516H96.791V17.0723L94.8926 17.2656L99.041 28.3398H99.1113L102.908 17.2656L100.975 17.0723V16.3516H105.791V17.0723L103.963 17.2656L98.0742 34.1758H97.2656L90.2168 17.2656L88.4766 17.0723ZM106.617 30.1855C106.617 29.6113 106.705 29.0605 106.881 28.5332C107.068 27.9941 107.367 27.4785 107.777 26.9863C108.188 26.4941 108.691 26.0664 109.289 25.7031C109.887 25.3398 110.625 25.0527 111.504 24.8418C112.395 24.6191 113.379 24.5078 114.457 24.5078C115.031 24.5078 115.576 24.5312 116.092 24.5781V22.1523C116.092 21.3789 116.074 20.752 116.039 20.2715C116.016 19.791 115.945 19.2988 115.828 18.7949C115.711 18.2793 115.541 17.8867 115.318 17.6172C115.107 17.3359 114.803 17.1074 114.404 16.9316C114.018 16.7441 113.543 16.6504 112.98 16.6504C111.27 16.6504 110.021 17.3242 109.236 18.6719V18.7422C109.436 18.707 109.617 18.6895 109.781 18.6895C110.391 18.6895 110.871 18.877 111.223 19.252C111.574 19.627 111.75 20.166 111.75 20.8691C111.75 21.4785 111.539 21.9941 111.117 22.416C110.695 22.8262 110.168 23.0312 109.535 23.0312C108.844 23.0312 108.299 22.7969 107.9 22.3281C107.502 21.8594 107.303 21.3086 107.303 20.6758C107.303 19.293 107.936 18.1387 109.201 17.2129C110.479 16.2871 111.943 15.8242 113.596 15.8242C114.768 15.8242 115.764 15.9473 116.584 16.1934C117.416 16.4395 118.078 16.7676 118.57 17.1777C119.062 17.5762 119.443 18.127 119.713 18.8301C119.994 19.5215 120.176 20.2305 120.258 20.957C120.352 21.6836 120.398 22.5742 120.398 23.6289V33.1035L122.209 33.2793V34H116.619L116.127 31.2227H116.092C115.518 32.3359 114.82 33.168 114 33.7188C113.191 34.2578 112.207 34.5273 111.047 34.5273C109.617 34.5273 108.521 34.0996 107.76 33.2441C106.998 32.3887 106.617 31.3691 106.617 30.1855ZM110.871 29.8164C110.871 30.7539 111.047 31.5156 111.398 32.1016C111.75 32.6758 112.266 32.9629 112.945 32.9629C113.742 32.9629 114.463 32.4648 115.107 31.4688C115.764 30.4727 116.092 29.2539 116.092 27.8125V25.3867C115.623 25.3281 115.242 25.2988 114.949 25.2988C114.34 25.2988 113.795 25.3809 113.314 25.5449C112.846 25.709 112.471 25.9316 112.189 26.2129C111.908 26.4941 111.674 26.793 111.486 27.1094C111.299 27.4141 111.164 27.7539 111.082 28.1289C111 28.5039 110.941 28.8145 110.906 29.0605C110.883 29.3066 110.871 29.5586 110.871 29.8164ZM124.477 25.6152C124.477 24.5957 124.57 23.6172 124.758 22.6797C124.945 21.7422 125.244 20.8574 125.654 20.0254C126.064 19.1816 126.568 18.4551 127.166 17.8457C127.764 17.2246 128.496 16.7324 129.363 16.3691C130.242 16.0059 131.209 15.8242 132.264 15.8242C132.709 15.8242 133.23 15.9004 133.828 16.0527C134.438 16.1934 134.924 16.416 135.287 16.7207V10.3047H133.125V9.58398L136.799 9.19727L139.277 8.54688L139.611 9.05664V33.1035L141.404 33.2793V34H135.533L135.305 31.5039H135.27C134.59 32.6641 133.881 33.4609 133.143 33.8945C132.404 34.3164 131.52 34.5273 130.488 34.5273C130.219 34.5273 129.932 34.498 129.627 34.4395C129.322 34.3809 128.971 34.2637 128.572 34.0879C128.174 33.9238 127.787 33.7129 127.412 33.4551C127.049 33.1855 126.686 32.8164 126.322 32.3477C125.959 31.8789 125.643 31.3457 125.373 30.748C125.104 30.1504 124.887 29.4121 124.723 28.5332C124.559 27.6426 124.477 26.6699 124.477 25.6152ZM128.977 25.4395C128.977 30.5137 130.025 33.0508 132.123 33.0508C132.955 33.0508 133.688 32.5527 134.32 31.5566C134.965 30.5605 135.287 29.4941 135.287 28.3574V17.582C134.619 17.0781 133.875 16.8262 133.055 16.8262C132.516 16.8262 132.029 16.9375 131.596 17.1602C131.174 17.3828 130.822 17.6641 130.541 18.0039C130.26 18.3438 130.02 18.7773 129.82 19.3047C129.621 19.8203 129.469 20.3184 129.363 20.7988C129.258 21.2793 129.17 21.8301 129.1 22.4512C129.041 23.0723 129.006 23.5938 128.994 24.0156C128.982 24.4375 128.977 24.9121 128.977 25.4395ZM143.197 10.3047V9.58398L146.871 9.19727L149.35 8.54688L149.596 9.05664V18.8828H149.666C151.061 16.8438 152.865 15.8242 155.08 15.8242C155.502 15.8242 155.906 15.8594 156.293 15.9297C156.68 16 157.107 16.1582 157.576 16.4043C158.045 16.6504 158.449 16.9727 158.789 17.3711C159.129 17.7695 159.416 18.3379 159.65 19.0762C159.885 19.8145 160.002 20.6758 160.002 21.6602V33.1035L161.795 33.2793V34H153.885V33.2793L155.678 33.1035V21.1504C155.678 18.6543 154.875 17.4062 153.27 17.4062C152.215 17.4062 151.348 17.8867 150.668 18.8477C150 19.8086 149.666 21.0684 149.666 22.627V33.1035L151.477 33.2793V34H143.549V33.2793L145.359 33.1035V10.3047H143.197Z" fill="white"/>
</svg>
